<svg xmlns="http://www.w3.org/2000/svg" xmlns:xlink="http://www.w3.org/1999/xlink" width="264" zoomAndPan="magnify" viewBox="0 0 198 189.000001" height="252" preserveAspectRatio="xMidYMid meet" version="1.0"><defs><g/><clipPath id="8f7bc1d827"><path d="M 12 4 L 52 4 L 52 77.019531 L 12 77.019531 Z M 12 4 " clip-rule="nonzero"/></clipPath><clipPath id="da844a1fe2"><rect x="0" width="40" y="0" height="74"/></clipPath><clipPath id="4c8974a27a"><path d="M 0.0742188 43 L 131.378906 43 L 131.378906 65 L 0.0742188 65 Z M 0.0742188 43 " clip-rule="nonzero"/></clipPath><clipPath id="6e110869af"><rect x="0" width="132" y="0" height="22"/></clipPath><clipPath id="42320548cd"><path d="M 50 0.386719 L 93 0.386719 L 93 73 L 50 73 Z M 50 0.386719 " clip-rule="nonzero"/></clipPath><clipPath id="86d8444acc"><rect x="0" width="43" y="0" height="73"/></clipPath><clipPath id="a1acefed6e"><rect x="0" width="132" y="0" height="78"/></clipPath></defs><g transform="matrix(1, 0, 0, 1, 47, 55)"><g clip-path="url(#a1acefed6e)"><g clip-path="url(#8f7bc1d827)"><g transform="matrix(1, 0, 0, 1, 12, 4)"><g clip-path="url(#da844a1fe2)"><g fill="#bfbfbf" fill-opacity="1"><g transform="translate(0.960969, 51.714292)"><g><path d="M 24.3125 -7.5625 C 25.550781 -7.5625 26.613281 -7.992188 27.5 -8.859375 C 28.394531 -9.734375 28.84375 -10.789062 28.84375 -12.03125 C 28.84375 -13.3125 28.394531 -14.390625 27.5 -15.265625 C 26.613281 -16.140625 25.550781 -16.578125 24.3125 -16.578125 L 13.671875 -16.578125 C 11.460938 -16.578125 9.445312 -17.117188 7.625 -18.203125 C 5.800781 -19.285156 4.34375 -20.738281 3.25 -22.5625 C 2.164062 -24.382812 1.625 -26.421875 1.625 -28.671875 C 1.625 -30.878906 2.164062 -32.894531 3.25 -34.71875 C 4.34375 -36.539062 5.800781 -37.992188 7.625 -39.078125 C 9.445312 -40.160156 11.460938 -40.703125 13.671875 -40.703125 L 24.3125 -40.703125 C 26.5625 -40.703125 28.597656 -40.160156 30.421875 -39.078125 C 32.242188 -37.992188 33.695312 -36.539062 34.78125 -34.71875 C 35.863281 -32.894531 36.40625 -30.878906 36.40625 -28.671875 L 28.84375 -28.671875 C 28.84375 -29.910156 28.394531 -30.96875 27.5 -31.84375 C 26.613281 -32.71875 25.550781 -33.15625 24.3125 -33.15625 L 13.671875 -33.15625 C 12.429688 -33.15625 11.375 -32.71875 10.5 -31.84375 C 9.625 -30.96875 9.1875 -29.910156 9.1875 -28.671875 C 9.1875 -27.390625 9.625 -26.3125 10.5 -25.4375 C 11.375 -24.570312 12.429688 -24.140625 13.671875 -24.140625 L 24.3125 -24.140625 C 26.5625 -24.140625 28.597656 -23.59375 30.421875 -22.5 C 32.242188 -21.414062 33.695312 -19.960938 34.78125 -18.140625 C 35.863281 -16.316406 36.40625 -14.28125 36.40625 -12.03125 C 36.40625 -9.820312 35.863281 -7.804688 34.78125 -5.984375 C 33.695312 -4.160156 32.242188 -2.707031 30.421875 -1.625 C 28.597656 -0.539062 26.5625 0 24.3125 0 L 13.671875 0 C 11.460938 0 9.445312 -0.539062 7.625 -1.625 C 5.800781 -2.707031 4.34375 -4.160156 3.25 -5.984375 C 2.164062 -7.804688 1.625 -9.820312 1.625 -12.03125 L 9.1875 -12.03125 C 9.1875 -10.789062 9.625 -9.734375 10.5 -8.859375 C 11.375 -7.992188 12.429688 -7.5625 13.671875 -7.5625 Z M 24.3125 -7.5625 "/></g></g></g></g></g></g><g clip-path="url(#4c8974a27a)"><g transform="matrix(1, 0, 0, 1, 0, 43)"><g clip-path="url(#6e110869af)"><g fill="#bfbfbf" fill-opacity="1"><g transform="translate(0.510366, 17.28889)"><g><path d="M 1.46875 -3.875 L 1.46875 -6 L 9.96875 -9.75 L 9.96875 -7.3125 L 4.21875 -5 L 4.21875 -4.890625 L 9.96875 -2.578125 L 9.96875 -0.140625 Z M 1.46875 -3.875 "/></g></g></g><g fill="#bfbfbf" fill-opacity="1"><g transform="translate(11.961696, 17.28889)"><g/></g></g><g fill="#bfbfbf" fill-opacity="1"><g transform="translate(15.904954, 17.28889)"><g/></g></g><g fill="#bfbfbf" fill-opacity="1"><g transform="translate(19.848212, 17.28889)"><g/></g></g><g fill="#bfbfbf" fill-opacity="1"><g transform="translate(23.79147, 17.28889)"><g/></g></g><g fill="#bfbfbf" fill-opacity="1"><g transform="translate(27.734728, 17.28889)"><g/></g></g><g fill="#bfbfbf" fill-opacity="1"><g transform="translate(31.677986, 17.28889)"><g/></g></g><g fill="#bfbfbf" fill-opacity="1"><g transform="translate(35.621244, 17.28889)"><g/></g></g><g fill="#bfbfbf" fill-opacity="1"><g transform="translate(39.564502, 17.28889)"><g/></g></g><g fill="#bfbfbf" fill-opacity="1"><g transform="translate(43.50776, 17.28889)"><g/></g></g><g fill="#bfbfbf" fill-opacity="1"><g transform="translate(47.451018, 17.28889)"><g/></g></g><g fill="#bfbfbf" fill-opacity="1"><g transform="translate(51.410626, 17.28889)"><g><path d="M 5.21875 0.1875 C 4.28125 0.1875 3.46875 -0.0078125 2.78125 -0.40625 C 2.101562 -0.8125 1.578125 -1.375 1.203125 -2.09375 C 0.835938 -2.8125 0.65625 -3.644531 0.65625 -4.59375 C 0.65625 -5.550781 0.835938 -6.390625 1.203125 -7.109375 C 1.578125 -7.828125 2.101562 -8.382812 2.78125 -8.78125 C 3.46875 -9.1875 4.28125 -9.390625 5.21875 -9.390625 C 6.15625 -9.390625 6.960938 -9.1875 7.640625 -8.78125 C 8.328125 -8.382812 8.851562 -7.828125 9.21875 -7.109375 C 9.59375 -6.390625 9.78125 -5.550781 9.78125 -4.59375 C 9.78125 -3.644531 9.59375 -2.8125 9.21875 -2.09375 C 8.851562 -1.375 8.328125 -0.8125 7.640625 -0.40625 C 6.960938 -0.0078125 6.15625 0.1875 5.21875 0.1875 Z M 5.234375 -1.8125 C 5.867188 -1.8125 6.347656 -2.078125 6.671875 -2.609375 C 7.003906 -3.140625 7.171875 -3.8125 7.171875 -4.625 C 7.171875 -5.425781 7.003906 -6.09375 6.671875 -6.625 C 6.347656 -7.164062 5.867188 -7.4375 5.234375 -7.4375 C 4.578125 -7.4375 4.082031 -7.164062 3.75 -6.625 C 3.425781 -6.09375 3.265625 -5.425781 3.265625 -4.625 C 3.265625 -3.8125 3.425781 -3.140625 3.75 -2.609375 C 4.082031 -2.078125 4.578125 -1.8125 5.234375 -1.8125 Z M 5.234375 -1.8125 "/></g></g></g><g fill="#bfbfbf" fill-opacity="1"><g transform="translate(61.84546, 17.28889)"><g><path d="M 3.59375 -12.359375 L 3.59375 0 L 1.03125 0 L 1.03125 -12.359375 Z M 3.59375 -12.359375 "/></g></g></g><g fill="#bfbfbf" fill-opacity="1"><g transform="translate(66.471085, 17.28889)"><g><path d="M 6.96875 -3.953125 L 6.96875 -9.265625 L 9.546875 -9.265625 L 9.546875 0 L 7.078125 0 L 7.078125 -1.6875 L 6.984375 -1.6875 C 6.773438 -1.144531 6.425781 -0.707031 5.9375 -0.375 C 5.445312 -0.0390625 4.859375 0.125 4.171875 0.125 C 3.234375 0.125 2.472656 -0.1875 1.890625 -0.8125 C 1.316406 -1.4375 1.03125 -2.289062 1.03125 -3.375 L 1.03125 -9.265625 L 3.59375 -9.265625 L 3.59375 -3.828125 C 3.601562 -3.273438 3.75 -2.835938 4.03125 -2.515625 C 4.320312 -2.203125 4.710938 -2.046875 5.203125 -2.046875 C 5.660156 -2.046875 6.070312 -2.207031 6.4375 -2.53125 C 6.800781 -2.851562 6.976562 -3.328125 6.96875 -3.953125 Z M 6.96875 -3.953125 "/></g></g></g><g fill="#bfbfbf" fill-opacity="1"><g transform="translate(77.044802, 17.28889)"><g><path d="M 5.953125 -9.265625 L 5.953125 -7.34375 L 4.21875 -7.34375 L 4.21875 -2.84375 C 4.21875 -2.488281 4.296875 -2.25 4.453125 -2.125 C 4.617188 -2 4.828125 -1.9375 5.078125 -1.9375 C 5.203125 -1.9375 5.320312 -1.945312 5.4375 -1.96875 C 5.5625 -2 5.65625 -2.019531 5.71875 -2.03125 L 6.125 -0.109375 C 6 -0.0664062 5.816406 -0.0195312 5.578125 0.03125 C 5.347656 0.0820312 5.066406 0.113281 4.734375 0.125 C 3.796875 0.164062 3.046875 -0.03125 2.484375 -0.46875 C 1.921875 -0.914062 1.640625 -1.597656 1.640625 -2.515625 L 1.640625 -7.34375 L 0.375 -7.34375 L 0.375 -9.265625 L 1.640625 -9.265625 L 1.640625 -11.5 L 4.21875 -11.5 L 4.21875 -9.265625 Z M 5.953125 -9.265625 "/></g></g></g><g fill="#bfbfbf" fill-opacity="1"><g transform="translate(83.65112, 17.28889)"><g><path d="M 1.03125 0 L 1.03125 -9.265625 L 3.59375 -9.265625 L 3.59375 0 Z M 2.3125 -10.46875 C 1.9375 -10.46875 1.613281 -10.59375 1.34375 -10.84375 C 1.070312 -11.101562 0.9375 -11.410156 0.9375 -11.765625 C 0.9375 -12.128906 1.070312 -12.4375 1.34375 -12.6875 C 1.613281 -12.9375 1.9375 -13.0625 2.3125 -13.0625 C 2.695312 -13.0625 3.023438 -12.9375 3.296875 -12.6875 C 3.578125 -12.4375 3.71875 -12.128906 3.71875 -11.765625 C 3.71875 -11.410156 3.578125 -11.101562 3.296875 -10.84375 C 3.023438 -10.59375 2.695312 -10.46875 2.3125 -10.46875 Z M 2.3125 -10.46875 "/></g></g></g><g fill="#bfbfbf" fill-opacity="1"><g transform="translate(88.276745, 17.28889)"><g><path d="M 5.21875 0.1875 C 4.28125 0.1875 3.46875 -0.0078125 2.78125 -0.40625 C 2.101562 -0.8125 1.578125 -1.375 1.203125 -2.09375 C 0.835938 -2.8125 0.65625 -3.644531 0.65625 -4.59375 C 0.65625 -5.550781 0.835938 -6.390625 1.203125 -7.109375 C 1.578125 -7.828125 2.101562 -8.382812 2.78125 -8.78125 C 3.46875 -9.1875 4.28125 -9.390625 5.21875 -9.390625 C 6.15625 -9.390625 6.960938 -9.1875 7.640625 -8.78125 C 8.328125 -8.382812 8.851562 -7.828125 9.21875 -7.109375 C 9.59375 -6.390625 9.78125 -5.550781 9.78125 -4.59375 C 9.78125 -3.644531 9.59375 -2.8125 9.21875 -2.09375 C 8.851562 -1.375 8.328125 -0.8125 7.640625 -0.40625 C 6.960938 -0.0078125 6.15625 0.1875 5.21875 0.1875 Z M 5.234375 -1.8125 C 5.867188 -1.8125 6.347656 -2.078125 6.671875 -2.609375 C 7.003906 -3.140625 7.171875 -3.8125 7.171875 -4.625 C 7.171875 -5.425781 7.003906 -6.09375 6.671875 -6.625 C 6.347656 -7.164062 5.867188 -7.4375 5.234375 -7.4375 C 4.578125 -7.4375 4.082031 -7.164062 3.75 -6.625 C 3.425781 -6.09375 3.265625 -5.425781 3.265625 -4.625 C 3.265625 -3.8125 3.425781 -3.140625 3.75 -2.609375 C 4.082031 -2.078125 4.578125 -1.8125 5.234375 -1.8125 Z M 5.234375 -1.8125 "/></g></g></g><g fill="#bfbfbf" fill-opacity="1"><g transform="translate(98.711579, 17.28889)"><g><path d="M 3.59375 -5.359375 L 3.59375 0 L 1.03125 0 L 1.03125 -9.265625 L 3.484375 -9.265625 L 3.484375 -7.640625 L 3.59375 -7.640625 C 3.800781 -8.179688 4.144531 -8.609375 4.625 -8.921875 C 5.101562 -9.234375 5.6875 -9.390625 6.375 -9.390625 C 7.34375 -9.390625 8.117188 -9.078125 8.703125 -8.453125 C 9.285156 -7.835938 9.578125 -6.988281 9.578125 -5.90625 L 9.578125 0 L 7 0 L 7 -5.453125 C 7.007812 -6.015625 6.863281 -6.453125 6.5625 -6.765625 C 6.269531 -7.085938 5.867188 -7.25 5.359375 -7.25 C 4.835938 -7.25 4.414062 -7.082031 4.09375 -6.75 C 3.769531 -6.425781 3.601562 -5.960938 3.59375 -5.359375 Z M 3.59375 -5.359375 "/></g></g></g><g fill="#bfbfbf" fill-opacity="1"><g transform="translate(109.285296, 17.28889)"><g><path d="M 8.734375 -6.625 L 6.390625 -6.484375 C 6.328125 -6.785156 6.160156 -7.039062 5.890625 -7.25 C 5.628906 -7.46875 5.273438 -7.578125 4.828125 -7.578125 C 4.429688 -7.578125 4.09375 -7.488281 3.8125 -7.3125 C 3.539062 -7.144531 3.410156 -6.925781 3.421875 -6.65625 C 3.410156 -6.4375 3.492188 -6.25 3.671875 -6.09375 C 3.859375 -5.9375 4.164062 -5.8125 4.59375 -5.71875 L 6.265625 -5.390625 C 8.054688 -5.015625 8.953125 -4.175781 8.953125 -2.875 C 8.953125 -2.269531 8.773438 -1.734375 8.421875 -1.265625 C 8.066406 -0.804688 7.578125 -0.445312 6.953125 -0.1875 C 6.335938 0.0625 5.628906 0.1875 4.828125 0.1875 C 3.597656 0.1875 2.617188 -0.0664062 1.890625 -0.578125 C 1.160156 -1.097656 0.734375 -1.800781 0.609375 -2.6875 L 3.140625 -2.8125 C 3.222656 -2.4375 3.410156 -2.148438 3.703125 -1.953125 C 3.992188 -1.765625 4.367188 -1.671875 4.828125 -1.671875 C 5.273438 -1.671875 5.632812 -1.757812 5.90625 -1.9375 C 6.1875 -2.113281 6.332031 -2.335938 6.34375 -2.609375 C 6.332031 -3.066406 5.9375 -3.375 5.15625 -3.53125 L 3.546875 -3.859375 C 1.742188 -4.210938 0.847656 -5.097656 0.859375 -6.515625 C 0.859375 -7.398438 1.21875 -8.097656 1.9375 -8.609375 C 2.65625 -9.128906 3.609375 -9.390625 4.796875 -9.390625 C 5.960938 -9.390625 6.882812 -9.140625 7.5625 -8.640625 C 8.238281 -8.148438 8.628906 -7.476562 8.734375 -6.625 Z M 8.734375 -6.625 "/></g></g></g><g fill="#bfbfbf" fill-opacity="1"><g transform="translate(118.838486, 17.28889)"><g><path d="M 9.96875 -3.875 L 1.46875 -0.140625 L 1.46875 -2.578125 L 7.203125 -4.890625 L 7.203125 -5 L 1.46875 -7.3125 L 1.46875 -9.75 L 9.96875 -6 Z M 9.96875 -3.875 "/></g></g></g></g></g></g><g clip-path="url(#42320548cd)"><g transform="matrix(1, 0, 0, 1, 50, -0.000000000000014211)"><g clip-path="url(#86d8444acc)"><g fill="#bfbfbf" fill-opacity="1"><g transform="translate(1.248886, 51.031915)"><g><path d="M 14.015625 -24.140625 L 18.84375 -24.140625 L 18.84375 -16.578125 L 14.015625 -16.578125 L 14.015625 -11.75 L 6.453125 -11.75 L 6.453125 -16.578125 L 1.625 -16.578125 L 1.625 -24.140625 L 6.453125 -24.140625 L 6.453125 -28.96875 L 14.015625 -28.96875 Z M 14.015625 -24.140625 "/></g></g></g><g fill="#bfbfbf" fill-opacity="1"><g transform="translate(21.716042, 51.031915)"><g><path d="M 14.015625 -24.140625 L 18.84375 -24.140625 L 18.84375 -16.578125 L 14.015625 -16.578125 L 14.015625 -11.75 L 6.453125 -11.75 L 6.453125 -16.578125 L 1.625 -16.578125 L 1.625 -24.140625 L 6.453125 -24.140625 L 6.453125 -28.96875 L 14.015625 -28.96875 Z M 14.015625 -24.140625 "/></g></g></g></g></g></g></g></g></svg>